<svg width="36" height="36" viewBox="0 0 36 36" fill="none" xmlns="http://www.w3.org/2000/svg">
<path d="M18 36C27.9411 36 36 27.9411 36 18C36 8.05887 27.9411 0 18 0C8.05887 0 0 8.05887 0 18C0 27.9411 8.05887 36 18 36Z" fill="black"/>
<path d="M25.104 20.7081C25.104 20.7247 25.104 20.7413 25.104 20.7578C25.093 20.7909 25.082 20.8186 25.071 20.8517C24.8948 21.3817 24.669 21.8952 24.4047 22.3922C24.0413 23.0768 23.5953 23.7007 23.1108 24.2971C22.896 24.5621 22.6592 24.7995 22.3949 25.0093C21.9159 25.3793 21.3763 25.5449 20.7706 25.4676C20.5448 25.44 20.3246 25.3903 20.1154 25.3075C19.9006 25.2191 19.6859 25.1308 19.4711 25.0369C19.1738 24.9099 18.8654 24.8216 18.5406 24.7885C18.3038 24.7664 18.0615 24.7609 17.8248 24.7829C17.5825 24.805 17.3457 24.8547 17.1145 24.921C16.8557 24.9983 16.6134 25.1087 16.3656 25.2136C16.0297 25.3572 15.6883 25.4731 15.3249 25.4952C15.1873 25.5063 15.0551 25.5007 14.923 25.4842C14.6697 25.451 14.4384 25.3627 14.2182 25.2357C13.9374 25.0701 13.6951 24.8602 13.4748 24.6228C13.183 24.3191 12.9297 23.9879 12.6874 23.6455C12.4176 23.2756 12.1533 22.9001 11.9331 22.5026C11.1567 21.1001 10.6777 19.6038 10.54 18.0026C10.507 17.6437 10.4849 17.2848 10.5125 16.9259C10.5345 16.6002 10.562 16.2744 10.6171 15.9542C10.7162 15.4076 10.8814 14.883 11.1347 14.3861C11.5146 13.6352 12.0487 13.0168 12.759 12.5585C13.4253 12.1333 14.1521 11.907 14.945 11.8904C15.2644 11.8849 15.5782 11.9346 15.8866 12.0174C16.2004 12.1057 16.5088 12.2272 16.8116 12.3487C17.0484 12.4425 17.2796 12.5364 17.5274 12.6082C17.7862 12.68 18.0395 12.6965 18.2983 12.6137C18.491 12.553 18.6837 12.4867 18.8765 12.4149C19.2123 12.2879 19.5427 12.1499 19.8841 12.045C20.2255 11.9401 20.5724 11.8628 20.9303 11.8517C21.3488 11.8352 21.7672 11.8683 22.1747 11.9622C23.0447 12.1609 23.777 12.5806 24.3662 13.2542C24.4708 13.3757 24.5699 13.5027 24.6635 13.6407C24.636 13.6573 24.614 13.6738 24.5919 13.6904C24.245 13.9168 23.9422 14.1873 23.6724 14.502C23.0722 15.2033 22.7584 16.0149 22.7308 16.937C22.7198 17.1965 22.7363 17.4505 22.7749 17.7045C22.8465 18.1683 22.9896 18.5989 23.2209 19.0075C23.5788 19.637 24.0799 20.1229 24.691 20.4928C24.8122 20.5756 24.9553 20.6529 25.104 20.7081Z" fill="white"/>
<path d="M21.3765 7.5C21.382 7.54417 21.3875 7.58834 21.393 7.63252C21.415 7.83681 21.4095 8.0411 21.382 8.24539C21.2884 9.02392 20.98 9.71962 20.49 10.327C19.9834 10.9509 19.3391 11.3705 18.5628 11.5859C18.3645 11.6411 18.1553 11.6687 17.9516 11.6576C17.8965 11.6576 17.8359 11.6466 17.7754 11.6411C17.7644 11.5803 17.7533 11.5251 17.7478 11.4699C17.7258 11.2601 17.7423 11.0448 17.7809 10.8405C17.9516 9.90182 18.4031 9.11778 19.1079 8.48834C19.5979 8.05214 20.1596 7.75399 20.7983 7.58834C20.936 7.55522 21.0736 7.52761 21.2168 7.51656C21.2333 7.51656 21.2498 7.51104 21.2663 7.50552C21.2994 7.5 21.3379 7.5 21.3765 7.5Z" fill="white"/>
</svg>
